# xmcd
#
# Track frame offsets: 
#        150
#        20425
#        44532
#        56272
#        71712
#        84550
#        100302
#        121612
#        136085
#        157340
#        175162
#        199342
#        214097
#        235165
#        250260
#        266962
#        280152
#        300505
#        315605
#        330120
#
# Disc length: 4682 seconds
#
# Revision: 26
# Processed by: cddbd v1.5.2PL0 Copyright (c) Steve Scherf et al.
# Submitted via: ExactAudioCopyFreeDBPlugin 1.0
#
DISCID=1a124814
DTITLE=Various Artist - Red Hot and Blue
DYEAR=1990
DGENRE=Jazz
TTITLE0=Neneh Cherry - I've Got U Under My Skin
TTITLE1=Neville Brothers - In The Still Of The Night
TTITLE2=Sinéad O'Connor - You Do Something To Me
TTITLE3=Salif Keita - Begin The Beguine
TTITLE4=The Fine Young Cannibals - Love For Sale
TTITLE5=Deborah Harry and Iggy Pop - Well Did You Evah!
TTITLE6=Kristy MacColl and the Pogues-Miss Otis Regrets - Just One Of Th
TTITLE6=ose Things
TTITLE7=David Byrne - Don't Fence Me In
TTITLE8=Tom Waits - It's All Right With Me
TTITLE9=Annie Lennox - Ev'ry Time We Say Goodbye
TTITLE10=U2 - Night And Day
TTITLE11=Les Negresses Vertes - I Love Paris
TTITLE12=K.D.Lang - So In Love
TTITLE13=The Thompson Twins - Who Wants To Be A Millionaire?
TTITLE14=Erasure - Too Darn Hot
TTITLE15=The Jungle Brothers - I Get A Kick Out Of You
TTITLE16=Lisa Stansfield - Down In The Depths
TTITLE17=Jimmy Somerville - From This Moment On
TTITLE18=Jody Watley - After You, Who
TTITLE19=Aztec Camera - Do I Love You
EXTD=corrected - more info YEAR: 1990
EXTT0=
EXTT1=
EXTT2=
EXTT3=
EXTT4=
EXTT5=
EXTT6=
EXTT7=
EXTT8=
EXTT9=
EXTT10=
EXTT11=
EXTT12=
EXTT13=
EXTT14=
EXTT15=
EXTT16=
EXTT17=
EXTT18=
EXTT19=
PLAYORDER=
